<svg width="750" height="250" viewBox="125 450 750 100" xmlns="http://www.w3.org/2000/svg"><defs/><path fill="#777777" transform="matrix(0.49253197223600104 0 0 0.49253197223600104 8.708658824457986 -596.8928743338016)" d="M 744.80034900499 2060.27890160619 L 704.21634900499 2060.27890160619 L 704.21634900499 2082.54390160619 L 731.44034900499 2082.54390160619 L 731.44034900499 2319.55490160619 L 309.13234900499 2319.55490160619 L 309.13234900499 2082.54390160619 L 336.35634900499 2082.54390160619 L 336.35634900499 2060.27890160619 L 295.77334900499 2060.27890160619 C 290.85534900499 2060.27890160619 286.86734900499 2064.26690160619 286.86734900499 2069.18490160619 L 286.86734900499 2362.59890160619 C 286.86734900499 2367.51690160619 290.85434900499 2371.50490160619 295.77334900499 2371.50490160619 L 744.80034900499 2371.50490160619 C 749.71934900499 2371.50490160619 753.70634900499 2367.51690160619 753.70634900499 2362.59890160619 L 753.70634900499 2069.18490160619 C 753.70634900499 2064.26690160619 749.71934900499 2060.27890160619 744.80034900499 2060.27890160619 Z M 665.67134900499 2352.84290160619 C 661.84634900499 2352.84290160619 658.74634900499 2349.74090160619 658.74634900499 2345.91590160619 C 658.74634900499 2342.09090160619 661.84634900499 2338.98990160619 665.67134900499 2338.98990160619 C 669.49634900499 2338.98990160619 672.59834900499 2342.09090160619 672.59834900499 2345.91590160619 C 672.59834900499 2349.74090160619 669.49634900499 2352.84290160619 665.67134900499 2352.84290160619 Z M 687.74034900499 2352.84290160619 C 683.91734900499 2352.84290160619 680.81334900499 2349.74090160619 680.81334900499 2345.91590160619 C 680.81334900499 2342.09090160619 683.91734900499 2338.98990160619 687.74034900499 2338.98990160619 C 691.56734900499 2338.98990160619 694.66834900499 2342.09090160619 694.66834900499 2345.91590160619 C 694.66834900499 2349.74090160619 691.56734900499 2352.84290160619 687.74034900499 2352.84290160619 Z M 709.81034900499 2352.84290160619 C 705.98534900499 2352.84290160619 702.88434900499 2349.74090160619 702.88434900499 2345.91590160619 C 702.88434900499 2342.09090160619 705.98534900499 2338.98990160619 709.81034900499 2338.98990160619 C 713.63434900499 2338.98990160619 716.73934900499 2342.09090160619 716.73934900499 2345.91590160619 C 716.73934900499 2349.74090160619 713.63534900499 2352.84290160619 709.81034900499 2352.84290160619 Z"/><path transform="matrix(0.49253197223600104 0 0 0.49253197223600104 8.708658824457986 -596.8928743338016)" d="M 579.23534900499 2390.66190160619 L 461.33734900499 2390.66190160619 L 441.00034900499 2430.01390160619 C 436.05434900499 2439.58190160619 440.77734900499 2447.33790160619 451.54734900499 2447.33790160619 L 589.02634900499 2447.33790160619 C 599.79634900499 2447.33790160619 604.51934900499 2439.58190160619 599.57534900499 2430.01390160619 L 579.23534900499 2390.66190160619 Z"/><path fill="#777777" transform="matrix(0.49253197223600104 0 0 0.49253197223600104 8.708658824457986 -596.8928743338016)" d="M 511.73534900499 2237.40890160619 L 511.73534900499 2046.65690160619 C 475.39134900499 1998.00390160619 412.74234900499 2007.51090160619 412.74234900499 2007.51090160619 L 412.74234900499 2195.41990160619 C 412.74234900499 2195.42090160619 468.04234900499 2191.27290160619 511.73534900499 2237.40890160619 Z"/><path fill="#777777" transform="matrix(0.49253197223600104 0 0 0.49253197223600104 8.708658824457986 -596.8928743338016)" d="M 528.83934900499 2237.40890160619 L 528.83934900499 2046.65690160619 C 565.18434900499 1998.00390160619 627.83134900499 2007.51090160619 627.83134900499 2007.51090160619 L 627.83134900499 2195.41990160619 C 627.83134900499 2195.42090160619 572.53034900499 2191.27290160619 528.83934900499 2237.40890160619 Z"/><path transform="matrix(0.49253197223600104 0 0 0.49253197223600104 8.708658824457986 -596.8928743338016)" d="M 672.16734900499 2039.29390160619 L 672.16734900499 2247.46990160619 C 650.12834900499 2244.67490160619 595.22534900499 2240.06790160619 545.60434900499 2254.80390160619 C 590.15234900499 2220.67490160619 649.87834900499 2227.54390160619 650.56134900499 2227.62890160619 L 659.94234900499 2228.78990160619 L 659.94934900499 2219.83990160619 L 659.94934900499 2025.39790160619 C 659.94934900499 2025.39790160619 653.41234900499 2024.41190160619 643.35634900499 2024.70690160619 L 643.35634900499 2211.34890160619 C 620.47134900499 2210.38190160619 561.24534900499 2212.58790160619 520.28734900499 2255.95590160619 C 479.32934900499 2212.58790160619 420.10234900499 2210.38190160619 397.21934900499 2211.34890160619 L 397.21934900499 2024.70690160619 C 387.16134900499 2024.41190160619 380.62734900499 2025.39790160619 380.62734900499 2025.39790160619 L 380.62734900499 2219.84090160619 L 380.63434900499 2228.79090160619 L 390.01434900499 2227.62990160619 C 390.69734900499 2227.54490160619 450.42434900499 2220.67590160619 494.97134900499 2254.80490160619 C 445.34934900499 2240.06890160619 390.44834900499 2244.67590160619 368.40834900499 2247.47090160619 L 368.40834900499 2039.29390160619 C 358.35234900499 2038.99890160619 351.82134900499 2039.98690160619 351.82134900499 2039.98690160619 L 351.82134900499 2266.06390160619 L 361.62234900499 2264.34590160619 C 362.52134900499 2264.18290160619 444.09034900499 2250.39690160619 505.19234900499 2275.09990160619 C 507.45634900499 2280.92290160619 513.35234900499 2285.08590160619 520.28934900499 2285.08590160619 C 527.22734900499 2285.08590160619 533.12234900499 2280.92290160619 535.38534900499 2275.09990160619 C 596.48734900499 2250.39690160619 678.05534900499 2264.18290160619 678.95534900499 2264.34590160619 L 688.75634900499 2266.06390160619 L 688.75634900499 2039.98690160619 C 688.75434900499 2039.98690160619 682.22334900499 2038.99890160619 672.16734900499 2039.29390160619 Z"/><path id="text" transform="matrix(1.10221500009864 0 0 1.10221500009864 286.6912072652262 -513.1338210809422)" d="M 167.58254371934 915.33610237932 L 167.58254371934 927.05485237932 L 142.92629371934 927.05485237932 L 142.92629371934 950.58610237932 L 129.89504371934 950.58610237932 L 129.89504371934 887.77360237932 L 172.73879371934 887.77360237932 L 172.73879371934 899.49235237932 L 142.92629371934 899.49235237932 L 142.92629371934 915.33610237932 L 167.58254371934 915.33610237932 Z M 225.38429371934 938.86735237932 L 225.38429371934 950.58610237932 L 191.16554371934 950.58610237932 L 191.16554371934 938.86735237932 L 201.75929371934 938.86735237932 L 201.75929371934 899.49235237932 L 191.16554371934 899.49235237932 L 191.16554371934 887.77360237932 L 225.38429371934 887.77360237932 L 225.38429371934 899.49235237932 L 214.79054371934 899.49235237932 L 214.79054371934 938.86735237932 L 225.38429371934 938.86735237932 Z M 263.02979371934 886.55485237932 C 266.65479371934 886.55485237932 269.96729371934 887.05485237932 272.96729371934 888.05485237932 C 275.96729371934 889.05485237932 278.49854371934 890.21110237932 280.56104371934 891.52360237932 L 280.56104371934 904.36735237932 C 278.31104371934 902.99235237932 275.90479371934 901.71110237932 273.34229371934 900.52360237932 C 270.77979371934 899.33610237932 267.87354371934 898.74235237932 264.62354371934 898.74235237932 C 262.99854371934 898.74235237932 261.38916871934 898.99235237932 259.79541871934 899.49235237932 C 258.20166871934 899.99235237932 256.88916871934 900.74235237932 255.85791871934 901.74235237932 C 254.82666871934 902.74235237932 254.31104371934 904.02360237932 254.31104371934 905.58610237932 C 254.31104371934 907.64860237932 255.21729371934 909.21110237932 257.02979371934 910.27360237932 C 258.84229371934 911.33610237932 261.06104371934 912.39860237932 263.68604371934 913.46110237932 L 271.37354371934 916.64860237932 C 275.74854371934 918.52360237932 278.96729371934 920.80485237932 281.02979371934 923.49235237932 C 283.09229371934 926.17985237932 284.12354371934 929.24235237932 284.12354371934 932.67985237932 C 284.12354371934 936.42985237932 283.04541871934 939.72672737932 280.88916871934 942.57047737932 C 278.73291871934 945.41422737932 275.85791871934 947.64860237932 272.26416871934 949.27360237932 C 268.67041871934 950.89860237932 264.68604371934 951.71110237932 260.31104371934 951.71110237932 C 256.62354371934 951.71110237932 253.09229371934 951.08610237932 249.71729371934 949.83610237932 C 246.34229371934 948.58610237932 243.40479371934 947.05485237932 240.90479371934 945.24235237932 L 240.90479371934 932.39860237932 C 243.65479371934 934.39860237932 246.68604371934 936.08610237932 249.99854371934 937.46110237932 C 253.31104371934 938.83610237932 256.84229371934 939.52360237932 260.59229371934 939.52360237932 C 263.21729371934 939.52360237932 265.46729371934 939.00797737932 267.34229371934 937.97672737932 C 269.21729371934 936.94547737932 270.15479371934 935.39860237932 270.15479371934 933.33610237932 C 270.15479371934 931.71110237932 269.38916871934 930.38297737932 267.85791871934 929.35172737932 C 266.32666871934 928.32047737932 264.65479371934 927.46110237932 262.84229371934 926.77360237932 L 253.18604371934 923.02360237932 C 248.31104371934 921.14860237932 245.01416871934 918.69547737932 243.29541871934 915.66422737932 C 241.57666871934 912.63297737932 240.71729371934 909.27360237932 240.71729371934 905.58610237932 C 240.71729371934 901.77360237932 241.76416871934 898.44547737932 243.85791871934 895.60172737932 C 245.95166871934 892.75797737932 248.68604371934 890.53922737932 252.06104371934 888.94547737932 C 255.43604371934 887.35172737932 259.09229371934 886.55485237932 263.02979371934 886.55485237932 Z M 354.25829371934 920.77360237932 L 354.25829371934 932.02360237932 L 326.03954371934 932.02360237932 L 326.03954371934 920.77360237932 L 354.25829371934 920.77360237932 Z M 432.08054371934 916.55485237932 L 453.45554371934 916.55485237932 L 453.45554371934 942.14860237932 C 450.83054371934 944.89860237932 447.50241871934 947.22672737932 443.47116871934 949.13297737932 C 439.43991871934 951.03922737932 434.89304371934 951.99235237932 429.83054371934 951.99235237932 C 425.33054371934 951.99235237932 421.08054371934 951.19547737932 417.08054371934 949.60172737932 C 413.08054371934 948.00797737932 409.54929371934 945.75797737932 406.48679371934 942.85172737932 C 403.42429371934 939.94547737932 401.01804371934 936.49235237932 399.26804371934 932.49235237932 C 397.51804371934 928.49235237932 396.64304371934 924.05485237932 396.64304371934 919.17985237932 C 396.64304371934 914.30485237932 397.51804371934 909.86735237932 399.26804371934 905.86735237932 C 401.01804371934 901.86735237932 403.42429371934 898.41422737932 406.48679371934 895.50797737932 C 409.54929371934 892.60172737932 413.08054371934 890.35172737932 417.08054371934 888.75797737932 C 421.08054371934 887.16422737932 425.33054371934 886.36735237932 429.83054371934 886.36735237932 C 433.76804371934 886.36735237932 437.17429371934 886.91422737932 440.04929371934 888.00797737932 C 442.92429371934 889.10172737932 445.42429371934 890.58610237932 447.54929371934 892.46110237932 L 447.54929371934 905.58610237932 C 446.04929371934 904.46110237932 444.48679371934 903.36735237932 442.86179371934 902.30485237932 C 441.23679371934 901.24235237932 439.40866871934 900.36735237932 437.37741871934 899.67985237932 C 435.34616871934 898.99235237932 432.95554371934 898.64860237932 430.20554371934 898.64860237932 C 426.45554371934 898.64860237932 423.04929371934 899.55485237932 419.98679371934 901.36735237932 C 416.92429371934 903.17985237932 414.48679371934 905.61735237932 412.67429371934 908.67985237932 C 410.86179371934 911.74235237932 409.95554371934 915.24235237932 409.95554371934 919.17985237932 C 409.95554371934 923.05485237932 410.86179371934 926.53922737932 412.67429371934 929.63297737932 C 414.48679371934 932.72672737932 416.92429371934 935.16422737932 419.98679371934 936.94547737932 C 423.04929371934 938.72672737932 426.45554371934 939.61735237932 430.20554371934 939.61735237932 C 433.08054371934 939.61735237932 435.39304371934 939.27360237932 437.14304371934 938.58610237932 C 438.89304371934 937.89860237932 440.26804371934 937.14860237932 441.26804371934 936.33610237932 L 441.36179371934 925.92985237932 L 432.08054371934 925.92985237932 L 432.08054371934 916.55485237932 Z M 502.53854371934 887.77360237932 L 502.53854371934 926.11735237932 L 511.06979371934 926.11735237932 L 511.06979371934 936.71110237932 L 502.53854371934 936.71110237932 L 502.53854371934 950.58610237932 L 490.53854371934 950.58610237932 L 490.53854371934 936.71110237932 L 464.10104371934 936.71110237932 L 464.10104371934 929.02360237932 C 469.22604371934 923.39860237932 474.38229371934 917.22672737932 479.56979371934 910.50797737932 C 484.75729371934 903.78922737932 489.69479371934 896.21110237932 494.38229371934 887.77360237932 L 502.53854371934 887.77360237932 Z M 490.53854371934 911.39860237932 C 488.66354371934 914.21110237932 486.89791871934 916.80485237932 485.24166871934 919.17985237932 C 483.58541871934 921.55485237932 481.78854371934 923.86735237932 479.85104371934 926.11735237932 L 490.53854371934 926.11735237932 L 490.53854371934 911.39860237932 Z"/></svg>