<?xml version="1.0" standalone="no"?>
<!DOCTYPE svg PUBLIC "-//W3C//DTD SVG 20010904//EN"
 "http://www.w3.org/TR/2001/REC-SVG-20010904/DTD/svg10.dtd">
<svg version="1.0" xmlns="http://www.w3.org/2000/svg"
 width="1920.000000pt" height="1383.000000pt" viewBox="0 0 1920.000000 1383.000000"
 preserveAspectRatio="xMidYMid meet">

<g transform="translate(0.000000,1383.000000) scale(0.100000,-0.100000)"
fill="#000000" stroke="none">
<path d="M9050 10245 c-1321 -146 -2400 -1083 -2725 -2366 -114 -449 -124
-974 -29 -1446 239 -1180 1175 -2145 2349 -2423 266 -63 451 -84 740 -84 369
0 659 46 995 157 1073 355 1883 1272 2100 2377 35 180 51 328 57 535 22 731
-187 1410 -611 1983 -532 720 -1321 1171 -2216 1267 -163 18 -500 18 -660 0z
m733 -2489 c752 -384 1367 -701 1367 -705 0 -3 -82 -48 -183 -100 -100 -52
-254 -131 -342 -176 -630 -325 -2234 -1145 -2239 -1145 -3 0 -6 637 -6 1416 0
1348 1 1415 18 1412 9 -2 633 -317 1385 -702z"/>
</g>
</svg>
