<svg width="1000" height="1000" viewBox="0 0 1000 1000" xmlns="http://www.w3.org/2000/svg"><defs/><path fill="#1f4985" transform="matrix(0.8206198659700851 0 0 0.8206198659700851 -10.931163356146536 6.088404179181442)" d="M 847.1296278123 307.40842443494 L 806.5456278123 307.40842443494 L 806.5456278123 329.67342443494 L 833.7696278123 329.67342443494 L 833.7696278123 566.68442443494 L 411.4616278123 566.68442443494 L 411.4616278123 329.67342443494 L 438.6856278123 329.67342443494 L 438.6856278123 307.40842443494 L 398.1026278123 307.40842443494 C 393.1846278123 307.40842443494 389.1966278123 311.39642443494 389.1966278123 316.31442443494 L 389.1966278123 609.72842443494 C 389.1966278123 614.64642443494 393.1836278123 618.63442443494 398.1026278123 618.63442443494 L 847.1296278123 618.63442443494 C 852.0486278123 618.63442443494 856.0356278123 614.64642443494 856.0356278123 609.72842443494 L 856.0356278123 316.31442443494 C 856.0356278123 311.39642443494 852.0486278123 307.40842443494 847.1296278123 307.40842443494 Z M 768.0006278123 599.97242443494 C 764.1756278123 599.97242443494 761.0756278123 596.87042443494 761.0756278123 593.04542443494 C 761.0756278123 589.22042443494 764.1756278123 586.11942443494 768.0006278123 586.11942443494 C 771.8256278123 586.11942443494 774.9276278123 589.22042443494 774.9276278123 593.04542443494 C 774.9276278123 596.87042443494 771.8256278123 599.97242443494 768.0006278123 599.97242443494 Z M 790.0696278123 599.97242443494 C 786.2466278123 599.97242443494 783.1426278123 596.87042443494 783.1426278123 593.04542443494 C 783.1426278123 589.22042443494 786.2466278123 586.11942443494 790.0696278123 586.11942443494 C 793.8966278123 586.11942443494 796.9976278123 589.22042443494 796.9976278123 593.04542443494 C 796.9976278123 596.87042443494 793.8966278123 599.97242443494 790.0696278123 599.97242443494 Z M 812.1396278123 599.97242443494 C 808.3146278123 599.97242443494 805.2136278123 596.87042443494 805.2136278123 593.04542443494 C 805.2136278123 589.22042443494 808.3146278123 586.11942443494 812.1396278123 586.11942443494 C 815.9636278123 586.11942443494 819.0686278123 589.22042443494 819.0686278123 593.04542443494 C 819.0686278123 596.87042443494 815.9646278123 599.97242443494 812.1396278123 599.97242443494 Z"/><path fill="#02aee7" transform="matrix(0.8206198659700851 0 0 0.8206198659700851 -10.931163356146536 6.088404179181442)" d="M 681.5646278123 637.79142443494 L 563.6666278123 637.79142443494 L 543.3296278123 677.14342443494 C 538.3836278123 686.71142443494 543.1066278123 694.46742443494 553.8766278123 694.46742443494 L 691.3556278123 694.46742443494 C 702.1256278123 694.46742443494 706.8486278123 686.71142443494 701.9046278123 677.14342443494 L 681.5646278123 637.79142443494 Z"/><path fill="#1f4985" transform="matrix(0.8206198659700851 0 0 0.8206198659700851 -10.931163356146536 6.088404179181442)" d="M 614.0646278123 484.53842443494 L 614.0646278123 293.78642443494 C 577.7206278123 245.13342443494 515.0716278123 254.64042443494 515.0716278123 254.64042443494 L 515.0716278123 442.54942443494 C 515.0716278123 442.55042443494 570.3716278123 438.40242443494 614.0646278123 484.53842443494 Z"/><path fill="#1f4985" transform="matrix(0.8206198659700851 0 0 0.8206198659700851 -10.931163356146536 6.088404179181442)" d="M 631.1686278123 484.53842443494 L 631.1686278123 293.78642443494 C 667.5136278123 245.13342443494 730.1606278123 254.64042443494 730.1606278123 254.64042443494 L 730.1606278123 442.54942443494 C 730.1606278123 442.55042443494 674.8596278123 438.40242443494 631.1686278123 484.53842443494 Z"/><path fill="#02aee7" transform="matrix(0.8206198659700851 0 0 0.8206198659700851 -10.931163356146536 6.088404179181442)" d="M 774.4966278123 286.42342443494 L 774.4966278123 494.59942443494 C 752.4576278123 491.80442443494 697.5546278123 487.19742443494 647.9336278123 501.93342443494 C 692.4816278123 467.80442443494 752.2076278123 474.67342443494 752.8906278123 474.75842443494 L 762.2716278123 475.91942443494 L 762.2786278123 466.96942443494 L 762.2786278123 272.52742443494 C 762.2786278123 272.52742443494 755.7416278123 271.54142443494 745.6856278123 271.83642443494 L 745.6856278123 458.47842443494 C 722.8006278123 457.51142443494 663.5746278123 459.71742443494 622.6166278123 503.08542443494 C 581.6586278123 459.71742443494 522.4316278123 457.51142443494 499.5486278123 458.47842443494 L 499.5486278123 271.83642443494 C 489.4906278123 271.54142443494 482.9566278123 272.52742443494 482.9566278123 272.52742443494 L 482.9566278123 466.97042443494 L 482.9636278123 475.92042443494 L 492.3436278123 474.75942443494 C 493.0266278123 474.67442443494 552.7536278123 467.80542443494 597.3006278123 501.93442443494 C 547.6786278123 487.19842443494 492.7776278123 491.80542443494 470.7376278123 494.60042443494 L 470.7376278123 286.42342443494 C 460.6816278123 286.12842443494 454.1506278123 287.11642443494 454.1506278123 287.11642443494 L 454.1506278123 513.19342443494 L 463.9516278123 511.47542443494 C 464.8506278123 511.31242443494 546.4196278123 497.52642443494 607.5216278123 522.22942443494 C 609.7856278123 528.05242443494 615.6816278123 532.21542443494 622.6186278123 532.21542443494 C 629.5566278123 532.21542443494 635.4516278123 528.05242443494 637.7146278123 522.22942443494 C 698.8166278123 497.52642443494 780.3846278123 511.31242443494 781.2846278123 511.47542443494 L 791.0856278123 513.19342443494 L 791.0856278123 287.11642443494 C 791.0836278123 287.11642443494 784.5526278123 286.12842443494 774.4966278123 286.42342443494 Z"/><path id="text" fill="#1f4985" transform="matrix(1.836428042518556 0 0 1.836428042518556 -17.216512898611462 602.4880784163406)" d="M 128.74280357143 63.03539011667 L 128.74280357143 74.75414011667 L 104.08655357143 74.75414011667 L 104.08655357143 98.28539011667 L 91.05530357143 98.28539011667 L 91.05530357143 35.47289011667 L 133.89905357143 35.47289011667 L 133.89905357143 47.19164011667 L 104.08655357143 47.19164011667 L 104.08655357143 63.03539011667 L 128.74280357143 63.03539011667 Z M 186.54455357143 86.56664011667 L 186.54455357143 98.28539011667 L 152.32580357143 98.28539011667 L 152.32580357143 86.56664011667 L 162.91955357143 86.56664011667 L 162.91955357143 47.19164011667 L 152.32580357143 47.19164011667 L 152.32580357143 35.47289011667 L 186.54455357143 35.47289011667 L 186.54455357143 47.19164011667 L 175.95080357143 47.19164011667 L 175.95080357143 86.56664011667 L 186.54455357143 86.56664011667 Z M 224.19005357143 34.25414011667 C 227.81505357143 34.25414011667 231.12755357143 34.75414011667 234.12755357143 35.75414011667 C 237.12755357143 36.75414011667 239.65880357143 37.91039011667 241.72130357143 39.22289011667 L 241.72130357143 52.06664011667 C 239.47130357143 50.69164011667 237.06505357143 49.41039011667 234.50255357143 48.22289011667 C 231.94005357143 47.03539011667 229.03380357143 46.44164011667 225.78380357143 46.44164011667 C 224.15880357143 46.44164011667 222.54942857143 46.69164011667 220.95567857143 47.19164011667 C 219.36192857143 47.69164011667 218.04942857143 48.44164011667 217.01817857143 49.44164011667 C 215.98692857143 50.44164011667 215.47130357143 51.72289011667 215.47130357143 53.28539011667 C 215.47130357143 55.34789011667 216.37755357143 56.91039011667 218.19005357143 57.97289011667 C 220.00255357143 59.03539011667 222.22130357143 60.09789011667 224.84630357143 61.16039011667 L 232.53380357143 64.34789011667 C 236.90880357143 66.22289011667 240.12755357143 68.50414011667 242.19005357143 71.19164011667 C 244.25255357143 73.87914011667 245.28380357143 76.94164011667 245.28380357143 80.37914011667 C 245.28380357143 84.12914011667 244.20567857143 87.42601511667 242.04942857143 90.26976511667 C 239.89317857143 93.11351511667 237.01817857143 95.34789011667 233.42442857143 96.97289011667 C 229.83067857143 98.59789011667 225.84630357143 99.41039011667 221.47130357143 99.41039011667 C 217.78380357143 99.41039011667 214.25255357143 98.78539011667 210.87755357143 97.53539011667 C 207.50255357143 96.28539011667 204.56505357143 94.75414011667 202.06505357143 92.94164011667 L 202.06505357143 80.09789011667 C 204.81505357143 82.09789011667 207.84630357143 83.78539011667 211.15880357143 85.16039011667 C 214.47130357143 86.53539011667 218.00255357143 87.22289011667 221.75255357143 87.22289011667 C 224.37755357143 87.22289011667 226.62755357143 86.70726511667 228.50255357143 85.67601511667 C 230.37755357143 84.64476511667 231.31505357143 83.09789011667 231.31505357143 81.03539011667 C 231.31505357143 79.41039011667 230.54942857143 78.08226511667 229.01817857143 77.05101511667 C 227.48692857143 76.01976511667 225.81505357143 75.16039011667 224.00255357143 74.47289011667 L 214.34630357143 70.72289011667 C 209.47130357143 68.84789011667 206.17442857143 66.39476511667 204.45567857143 63.36351511667 C 202.73692857143 60.33226511667 201.87755357143 56.97289011667 201.87755357143 53.28539011667 C 201.87755357143 49.47289011667 202.92442857143 46.14476511667 205.01817857143 43.30101511667 C 207.11192857143 40.45726511667 209.84630357143 38.23851511667 213.22130357143 36.64476511667 C 216.59630357143 35.05101511667 220.25255357143 34.25414011667 224.19005357143 34.25414011667 Z M 315.41855357143 68.47289011667 L 315.41855357143 79.72289011667 L 287.19980357143 79.72289011667 L 287.19980357143 68.47289011667 L 315.41855357143 68.47289011667 Z M 393.24080357143 64.25414011667 L 414.61580357143 64.25414011667 L 414.61580357143 89.84789011667 C 411.99080357143 92.59789011667 408.66267857143 94.92601511667 404.63142857143 96.83226511667 C 400.60017857143 98.73851511667 396.05330357143 99.69164011667 390.99080357143 99.69164011667 C 386.49080357143 99.69164011667 382.24080357143 98.89476511667 378.24080357143 97.30101511667 C 374.24080357143 95.70726511667 370.70955357143 93.45726511667 367.64705357143 90.55101511667 C 364.58455357143 87.64476511667 362.17830357143 84.19164011667 360.42830357143 80.19164011667 C 358.67830357143 76.19164011667 357.80330357143 71.75414011667 357.80330357143 66.87914011667 C 357.80330357143 62.00414011667 358.67830357143 57.56664011667 360.42830357143 53.56664011667 C 362.17830357143 49.56664011667 364.58455357143 46.11351511667 367.64705357143 43.20726511667 C 370.70955357143 40.30101511667 374.24080357143 38.05101511667 378.24080357143 36.45726511667 C 382.24080357143 34.86351511667 386.49080357143 34.06664011667 390.99080357143 34.06664011667 C 394.92830357143 34.06664011667 398.33455357143 34.61351511667 401.20955357143 35.70726511667 C 404.08455357143 36.80101511667 406.58455357143 38.28539011667 408.70955357143 40.16039011667 L 408.70955357143 53.28539011667 C 407.20955357143 52.16039011667 405.64705357143 51.06664011667 404.02205357143 50.00414011667 C 402.39705357143 48.94164011667 400.56892857143 48.06664011667 398.53767857143 47.37914011667 C 396.50642857143 46.69164011667 394.11580357143 46.34789011667 391.36580357143 46.34789011667 C 387.61580357143 46.34789011667 384.20955357143 47.25414011667 381.14705357143 49.06664011667 C 378.08455357143 50.87914011667 375.64705357143 53.31664011667 373.83455357143 56.37914011667 C 372.02205357143 59.44164011667 371.11580357143 62.94164011667 371.11580357143 66.87914011667 C 371.11580357143 70.75414011667 372.02205357143 74.23851511667 373.83455357143 77.33226511667 C 375.64705357143 80.42601511667 378.08455357143 82.86351511667 381.14705357143 84.64476511667 C 384.20955357143 86.42601511667 387.61580357143 87.31664011667 391.36580357143 87.31664011667 C 394.24080357143 87.31664011667 396.55330357143 86.97289011667 398.30330357143 86.28539011667 C 400.05330357143 85.59789011667 401.42830357143 84.84789011667 402.42830357143 84.03539011667 L 402.52205357143 73.62914011667 L 393.24080357143 73.62914011667 L 393.24080357143 64.25414011667 Z M 463.69880357143 35.47289011667 L 463.69880357143 73.81664011667 L 472.23005357143 73.81664011667 L 472.23005357143 84.41039011667 L 463.69880357143 84.41039011667 L 463.69880357143 98.28539011667 L 451.69880357143 98.28539011667 L 451.69880357143 84.41039011667 L 425.26130357143 84.41039011667 L 425.26130357143 76.72289011667 C 430.38630357143 71.09789011667 435.54255357143 64.92601511667 440.73005357143 58.20726511667 C 445.91755357143 51.48851511667 450.85505357143 43.91039011667 455.54255357143 35.47289011667 L 463.69880357143 35.47289011667 Z M 451.69880357143 59.09789011667 C 449.82380357143 61.91039011667 448.05817857143 64.50414011667 446.40192857143 66.87914011667 C 444.74567857143 69.25414011667 442.94880357143 71.56664011667 441.01130357143 73.81664011667 L 451.69880357143 73.81664011667 L 451.69880357143 59.09789011667 Z"/></svg>